<svg width="16" height="16" viewBox="0 0 16 16" fill="none" xmlns="http://www.w3.org/2000/svg">
<path d="M6.10209 3.60558C6.94652 2.09075 7.36874 1.33333 7.99998 1.33333C8.63122 1.33333 9.05344 2.09074 9.89787 3.60558L10.1163 3.99748C10.3563 4.42795 10.4763 4.64319 10.6634 4.7852C10.8504 4.92721 11.0834 4.97993 11.5494 5.08536L11.9736 5.18135C13.6134 5.55237 14.4333 5.73787 14.6284 6.36515C14.8234 6.99242 14.2645 7.64604 13.1466 8.95328L12.8574 9.29148C12.5397 9.66295 12.3809 9.84869 12.3094 10.0785C12.2379 10.3083 12.262 10.5561 12.31 11.0517L12.3537 11.5029C12.5227 13.2471 12.6072 14.1191 12.0965 14.5068C11.5859 14.8945 10.8182 14.541 9.28286 13.8341L8.88566 13.6512C8.44936 13.4503 8.23122 13.3499 7.99998 13.3499C7.76874 13.3499 7.5506 13.4503 7.1143 13.6512L6.7171 13.8341C5.18176 14.541 4.4141 14.8945 3.90341 14.5068C3.39273 14.1191 3.47723 13.2471 3.64624 11.5029L3.68997 11.0517C3.738 10.5561 3.76201 10.3083 3.69056 10.0785C3.6191 9.84869 3.46026 9.66295 3.14259 9.29148L2.85338 8.95328C1.73548 7.64604 1.17653 6.99242 1.37159 6.36515C1.56666 5.73787 2.38655 5.55237 4.02634 5.18135L4.45057 5.08536C4.91655 4.97993 5.14953 4.92721 5.33661 4.7852C5.52368 4.64319 5.64366 4.42795 5.88362 3.99748L6.10209 3.60558Z" fill="#3BFD00"/>
</svg>
